<svg xmlns="http://www.w3.org/2000/svg" xml:space="preserve" width="128" height="128" viewBox="0 0 24 24"><path fill="#FF7A55" d="M20.809 1.2c-.212-.567-.614-.956-1.161-1.125-2.162-.671-4.093 3.46-5.765 7.778C13.062 4.702 11.601 1.3 9.964.31 9.473.012 8.98-.071 8.505.063c-.616.173-1.068.621-1.306 1.296-.783 2.218.844 6.819 2.531 9.652.403.282.799.652 1.162 1.105l.039-.009c-.292-.524-.41-1.197-.242-2.081.18-.946 4.601-1.144 7.419.209C19.639 7.733 21.6 3.309 20.809 1.2z"/><path fill="#FE795A" d="M12.179 23.994c-2.911 0-5.355-1.238-6.876-3.541-1.363-2.061-1.708-4.659-.803-6.04.453-.693 1.161-.995 2-.848 1.402.243 3.614 2.452 4.227 4.222.358 1.035.078 1.648-.222 1.981-.515.574-1.25.765-2.014.526-1.256-.392-2.386-1.849-2.573-3.317a.5.5 0 1 1 .992-.126c.151 1.185 1.093 2.243 1.878 2.488.396.124.715.045.973-.24.215-.24.13-.668.02-.985-.517-1.493-2.5-3.398-3.453-3.563-.436-.075-.762.058-.992.41-.59.901-.451 3.047.8 4.942.955 1.444 3.24 3.745 7.841 2.928 6.59-1.172 6.119-7.274 5.942-9.571l-.013-.173c-.118-1.583-1.757-2.41-3.112-2.826-2.604-.8-5.333-.47-5.635-.088-.159.893-.002 1.598.502 2.104 1.311 1.314 4.735 1.012 5.945.787a.5.5 0 0 1 .192.981c-2.249.459-3.674 1.339-4.235 2.615-.819 1.862.447 4.008.459 4.03a.5.5 0 0 1-.857.515c-.063-.105-1.543-2.616-.518-4.947.355-.807.958-1.481 1.805-2.018-1.288-.086-2.651-.405-3.5-1.255-.745-.746-1-1.772-.757-3.05.238-1.255 3.064-1.193 3.921-1.145 2.998.17 6.573 1.378 6.785 4.224l.013.17c.177 2.301.718 9.302-6.764 10.633-.674.118-1.334.177-1.971.177z"/><path fill="#FE795A" d="M11.592 18.02c-1.198 0-2.613-1.356-3.667-2.502-1.22-1.326-1.855-2.726-1.743-3.84.061-.604.338-1.099.801-1.434 1.163-.84 3.012-.136 4.397 1.675.763.997 3.084 4.029 1.181 5.725a1.416 1.416 0 0 1-.969.376zm.637-.75h.01-.01zm-4.121-6.374a.9.9 0 0 0-.539.159c-.231.167-.359.404-.392.724-.083.818.472 1.963 1.484 3.063 2.314 2.517 3.061 2.212 3.235 2.056.803-.715.362-2.185-1.31-4.37-.771-1.009-1.76-1.632-2.478-1.632z"/></svg>